<svg width="100" height="100" viewBox="0 0 100 100" fill="none" xmlns="http://www.w3.org/2000/svg">
    <mask id="mask0_51_397" style="mask-type:alpha" maskUnits="userSpaceOnUse" x="0" y="0"
        width="100" height="100">
        <rect width="100" height="100" fill="#D9D9D9" />
    </mask>
    <g mask="url(#mask0_51_397)">
        <path
            d="M7.32422 72.5397C7.32422 70.3502 7.88915 68.4127 9.01901 66.7272C10.1489 65.0418 11.7305 63.7519 13.7638 62.8574C18.2742 60.8776 22.3937 59.4015 26.1221 58.4293C29.8506 57.4571 34.0013 56.971 38.5742 56.971C43.1735 56.971 47.3201 57.4571 51.0138 58.4293C54.7076 59.4015 58.8228 60.8776 63.3596 62.8574C65.3666 63.7519 66.9457 65.0418 68.0971 66.7272C69.2485 68.4127 69.8242 70.3502 69.8242 72.5397V75.6408C69.8242 76.8963 69.3635 78.0116 68.4419 78.9866C67.5204 79.9616 66.3784 80.4491 65.0159 80.4491H12.1315C10.7961 80.4491 9.66102 79.9814 8.7263 79.046C7.79158 78.1113 7.32422 76.9762 7.32422 75.6408V72.5397ZM75.6575 80.4491C75.8707 79.6477 76.0871 78.8623 76.3065 78.0929C76.5253 77.3234 76.6346 76.5061 76.6346 75.6408V72.6606C76.6346 68.9529 75.8489 65.9095 74.2773 63.5304C72.7058 61.1512 70.3721 59.1519 67.2763 57.5324C70.9728 58.0609 74.485 58.7446 77.8128 59.5835C81.1405 60.4224 83.9235 61.4161 86.1617 62.5647C88.1332 63.6703 89.7117 65.0904 90.8971 66.8251C92.0832 68.5606 92.6763 70.5057 92.6763 72.6606V75.6408C92.6763 76.9762 92.2089 78.1113 91.2742 79.046C90.3395 79.9814 89.2044 80.4491 87.869 80.4491H75.6575ZM38.5742 48.6543C34.5638 48.6543 31.2576 47.3533 28.6555 44.7512C26.0534 42.1484 24.7523 38.8422 24.7523 34.8324C24.7523 30.7949 26.0534 27.4817 28.6555 24.8929C31.2576 22.304 34.5638 21.0095 38.5742 21.0095C42.611 21.0095 45.9239 22.304 48.5128 24.8929C51.1016 27.4817 52.3961 30.7949 52.3961 34.8324C52.3961 38.8422 51.1016 42.1484 48.5128 44.7512C45.9239 47.3533 42.611 48.6543 38.5742 48.6543ZM71.5065 34.8324C71.5065 38.8422 70.2121 42.1484 67.6232 44.7512C65.0343 47.3533 61.7214 48.6543 57.6846 48.6543C57.2145 48.6543 56.711 48.622 56.1742 48.5574C55.6374 48.4936 55.1339 48.3762 54.6638 48.2054C56.152 46.5824 57.2812 44.6338 58.0513 42.3595C58.8214 40.0852 59.2065 37.5745 59.2065 34.8272C59.2065 32.0793 58.8062 29.6276 58.0055 27.472C57.2041 25.3165 56.0902 23.2988 54.6638 21.4189C55.1069 21.3175 55.6103 21.2238 56.1742 21.1376C56.7374 21.0522 57.2409 21.0095 57.6846 21.0095C61.7214 21.0095 65.0343 22.304 67.6232 24.8929C70.2121 27.4817 71.5065 30.7949 71.5065 34.8324Z"
            fill="#3C61CB" />
    </g>
</svg>
    