<svg width="48" height="48" viewBox="0 0 48 48" fill="none" xmlns="http://www.w3.org/2000/svg">
    <mask id="mask0_51_497" style="mask-type:alpha" maskUnits="userSpaceOnUse" x="0" y="0"
        width="48" height="48">
        <rect width="48" height="48" fill="#D9D9D9" />
    </mask>
    <g mask="url(#mask0_51_497)">
        <path
            d="M24 23.354C22.075 23.354 20.488 22.7295 19.239 21.4805C17.99 20.2311 17.3655 18.6408 17.3655 16.7095C17.3655 14.7781 17.99 13.1911 19.239 11.9485C20.488 10.7058 22.075 10.0845 24 10.0845C25.925 10.0845 27.512 10.7058 28.761 11.9485C30.01 13.1911 30.6345 14.7781 30.6345 16.7095C30.6345 18.6408 30.01 20.2311 28.761 21.4805C27.512 22.7295 25.925 23.354 24 23.354ZM9 36.3075V34.819C9 33.7446 9.28467 32.8088 9.854 32.0115C10.4233 31.2141 11.163 30.6013 12.073 30.173C14.1783 29.2373 16.2077 28.5321 18.161 28.0575C20.1143 27.5831 22.0605 27.346 23.9995 27.346C25.9382 27.346 27.8793 27.5883 29.823 28.073C31.7667 28.5576 33.7868 29.2621 35.8835 30.1865C36.8295 30.6138 37.5853 31.2241 38.151 32.0175C38.717 32.8108 39 33.7446 39 34.819V36.3075C39 36.9401 38.7735 37.483 38.3205 37.936C37.8678 38.389 37.3252 38.6155 36.6925 38.6155H11.3075C10.6748 38.6155 10.1322 38.389 9.6795 37.936C9.2265 37.483 9 36.9401 9 36.3075ZM11.2695 36.346H36.7305V34.819C36.7305 34.2986 36.5658 33.8 36.2365 33.323C35.9072 32.846 35.477 32.4716 34.946 32.2C32.9793 31.2436 31.1243 30.5738 29.381 30.1905C27.6377 29.8071 25.844 29.6155 24 29.6155C22.156 29.6155 20.3488 29.8071 18.5785 30.1905C16.8082 30.5738 14.9563 31.2436 13.023 32.2C12.4923 32.4716 12.0673 32.846 11.748 33.323C11.429 33.8 11.2695 34.2986 11.2695 34.819V36.346ZM24 21.0845C25.2487 21.0845 26.2883 20.6691 27.119 19.8385C27.95 19.0078 28.3655 17.9681 28.3655 16.7195C28.3655 15.4705 27.95 14.4306 27.119 13.6C26.2883 12.7693 25.2487 12.354 24 12.354C22.7513 12.354 21.7117 12.7693 20.881 13.6C20.05 14.4306 19.6345 15.4705 19.6345 16.7195C19.6345 17.9681 20.05 19.0078 20.881 19.8385C21.7117 20.6691 22.7513 21.0845 24 21.0845Z"
            fill="#1C1B1F" />
    </g>
</svg>
    