<svg width="100" height="100" viewBox="0 0 100 100" fill="none" xmlns="http://www.w3.org/2000/svg">
    <mask id="mask0_51_388" style="mask-type:alpha" maskUnits="userSpaceOnUse" x="0" y="0"
        width="100" height="100">
        <rect width="100" height="100" fill="#D9D9D9" />
    </mask>
    <g mask="url(#mask0_51_388)">
        <path
            d="M86.7782 64.872V40.2647L52.8365 58.6137C51.9268 59.1429 50.9622 59.3901 49.9428 59.3554C48.9233 59.3206 47.9407 59.0387 46.9949 58.5095L13.3334 40.0887C12.8313 39.7679 12.4521 39.3873 12.1959 38.947C11.9396 38.5067 11.8115 38.0234 11.8115 37.497C11.8115 36.9699 11.9396 36.4876 12.1959 36.0501C12.4521 35.612 12.8313 35.2324 13.3334 34.9116L46.9938 16.472C47.4646 16.2269 47.9469 16.0366 48.4407 15.9012C48.9344 15.7651 49.4327 15.697 49.9355 15.697C50.439 15.697 50.9376 15.7665 51.4313 15.9054C51.9244 16.0442 52.3928 16.2394 52.8365 16.4908L89.9199 36.6022C90.3851 36.8397 90.7657 37.204 91.0615 37.6949C91.358 38.1859 91.5063 38.7192 91.5063 39.2949V64.872C91.5063 65.5422 91.2782 66.1036 90.8219 66.5564C90.365 67.0092 89.7987 67.2356 89.123 67.2356C88.4466 67.2356 87.8869 67.0092 87.4438 66.5564C87.0001 66.1036 86.7782 65.5422 86.7782 64.872ZM46.9949 81.0658L25.1605 69.1428C24.2417 68.5873 23.5004 67.838 22.9365 66.8949C22.3733 65.9519 22.0917 64.9276 22.0917 63.822V47.7804L46.9949 61.3939C47.9074 61.9231 48.8796 62.1876 49.9115 62.1876C50.9428 62.1876 51.9178 61.9231 52.8365 61.3939L77.7803 47.7804V63.8293C77.7803 64.9439 77.4987 65.9692 76.9355 66.9054C76.3716 67.8415 75.6167 68.5873 74.6709 69.1428L52.8365 81.0658C52.39 81.3435 51.9181 81.5519 51.4209 81.6908C50.9244 81.8297 50.4292 81.8991 49.9355 81.8991C49.4424 81.8991 48.9476 81.8297 48.4511 81.6908C47.9539 81.5519 47.4685 81.3435 46.9949 81.0658Z"
            fill="#EF832B" />
    </g>
</svg>
    