<svg width="48" height="48" viewBox="0 0 48 48" fill="none" xmlns="http://www.w3.org/2000/svg">
    <mask id="mask0_51_502" style="mask-type:alpha" maskUnits="userSpaceOnUse" x="0" y="0"
        width="48" height="48">
        <rect width="48" height="48" fill="#D9D9D9" />
    </mask>
    <g mask="url(#mask0_51_502)">
        <path
            d="M45 9.8845V38.1155C45 38.8988 44.715 39.5753 44.145 40.145C43.5753 40.715 42.8988 41 42.1155 41H32.704C32.3823 41 32.1128 40.8903 31.8955 40.671C31.6778 40.4517 31.569 40.1798 31.569 39.8555C31.569 39.5312 31.6778 39.2627 31.8955 39.05C32.1128 38.837 32.3823 38.7305 32.704 38.7305H42.1155C42.2948 38.7305 42.4422 38.6728 42.5575 38.5575C42.6728 38.4422 42.7305 38.2948 42.7305 38.1155V9.8845C42.7305 9.70517 42.6728 9.55783 42.5575 9.4425C42.4422 9.32717 42.2948 9.2695 42.1155 9.2695H23.4615C23.2822 9.2695 23.1347 9.32717 23.019 9.4425C22.9037 9.55783 22.846 9.70517 22.846 9.8845V13.3845C22.846 13.7062 22.7333 13.9757 22.508 14.193C22.2823 14.4107 22.0105 14.5195 21.6925 14.5195C21.3745 14.5195 21.109 14.4107 20.896 14.193C20.6833 13.9757 20.577 13.7062 20.577 13.3845V9.904C20.577 9.10967 20.8605 8.42717 21.4275 7.8565C21.9945 7.2855 22.6725 7 23.4615 7H42.1155C42.8988 7 43.5753 7.285 44.145 7.855C44.715 8.42467 45 9.10117 45 9.8845ZM3 24.3575C3 23.9038 3.102 23.4617 3.306 23.031C3.50967 22.6 3.80517 22.2577 4.1925 22.004L13.9925 15.0115C14.2585 14.8298 14.5305 14.6992 14.8085 14.6195C15.0865 14.5398 15.3707 14.5 15.661 14.5C15.951 14.5 16.2383 14.5398 16.523 14.6195C16.8073 14.6992 17.0855 14.8298 17.3575 15.0115L27.1075 22.004C27.4948 22.2577 27.7903 22.6 27.994 23.031C28.198 23.4617 28.3 23.9038 28.3 24.3575V38.1155C28.3 38.8988 28.0175 39.5753 27.4525 40.145C26.8875 40.715 26.2085 41 25.4155 41H21.296C20.5127 41 19.8362 40.715 19.2665 40.145C18.6965 39.5753 18.4115 38.8988 18.4115 38.1155V31.469H12.919V38.1155C12.919 38.8988 12.6367 39.5753 12.072 40.145C11.507 40.715 10.8278 41 10.0345 41H5.8845C5.10117 41 4.42467 40.715 3.855 40.145C3.285 39.5753 3 38.8988 3 38.1155V24.3575ZM5.2695 24.379V38.1155C5.2695 38.2948 5.32717 38.4422 5.4425 38.5575C5.55783 38.6728 5.70517 38.7305 5.8845 38.7305H10.0345C10.2142 38.7305 10.3617 38.6728 10.477 38.5575C10.5923 38.4422 10.65 38.2948 10.65 38.1155V31.5075C10.65 30.8648 10.8765 30.3197 11.3295 29.872C11.7822 29.424 12.3248 29.2 12.9575 29.2H18.373C19.0157 29.2 19.561 29.424 20.009 29.872C20.4567 30.3197 20.6805 30.8648 20.6805 31.5075V38.1155C20.6805 38.2948 20.7415 38.4422 20.8635 38.5575C20.9852 38.6728 21.1293 38.7305 21.296 38.7305H25.4155C25.5948 38.7305 25.7422 38.6728 25.8575 38.5575C25.9732 38.4422 26.031 38.2948 26.031 38.1155V24.379C26.031 24.289 26.0085 24.196 25.9635 24.1C25.9185 24.0037 25.8512 23.9235 25.7615 23.8595L16.0115 16.904C15.9088 16.827 15.7967 16.7885 15.675 16.7885C15.5533 16.7885 15.4347 16.827 15.319 16.904L5.5385 23.8595C5.44883 23.9235 5.3815 24.0037 5.3365 24.1C5.29183 24.196 5.2695 24.289 5.2695 24.379ZM35.5715 16.927H36.938C37.1307 16.927 37.2988 16.8552 37.4425 16.7115C37.5858 16.5678 37.6575 16.4003 37.6575 16.209V14.85C37.6575 14.655 37.5858 14.4845 37.4425 14.3385C37.2988 14.1925 37.1312 14.1195 36.9395 14.1195H35.581C35.386 14.1195 35.2153 14.1917 35.069 14.336C34.923 14.4803 34.85 14.6487 34.85 14.841V16.2075C34.85 16.3998 34.9222 16.5678 35.0665 16.7115C35.2108 16.8552 35.3792 16.927 35.5715 16.927ZM35.5715 25.323H36.938C37.1307 25.323 37.2988 25.2515 37.4425 25.1085C37.5858 24.9652 37.6575 24.798 37.6575 24.607V23.252C37.6575 23.061 37.5858 22.8905 37.4425 22.7405C37.2988 22.5905 37.1312 22.5155 36.9395 22.5155H35.581C35.386 22.5155 35.2153 22.5905 35.069 22.7405C34.923 22.8905 34.85 23.061 34.85 23.252V24.607C34.85 24.798 34.9222 24.9652 35.0665 25.1085C35.2108 25.2515 35.3792 25.323 35.5715 25.323ZM35.5715 33.6885H36.938C37.1307 33.6885 37.2988 33.6168 37.4425 33.4735C37.5858 33.3305 37.6575 33.1635 37.6575 32.9725V31.617C37.6575 31.4263 37.5858 31.256 37.4425 31.106C37.2988 30.956 37.1312 30.881 36.9395 30.881H35.581C35.386 30.881 35.2153 30.956 35.069 31.106C34.923 31.256 34.85 31.4263 34.85 31.617V32.9725C34.85 33.1635 34.9222 33.3305 35.0665 33.4735C35.2108 33.6168 35.3792 33.6885 35.5715 33.6885Z"
            fill="#1C1B1F" />
    </g>
</svg>
    