<svg width="100" height="100" viewBox="0 0 100 100" fill="none" xmlns="http://www.w3.org/2000/svg">
    <mask id="mask0_51_391" style="mask-type:alpha" maskUnits="userSpaceOnUse" x="0" y="0"
        width="100" height="100">
        <rect width="100" height="100" fill="#D9D9D9" />
    </mask>
    <g mask="url(#mask0_51_391)">
        <path
            d="M28.6062 89.5832C25.9083 89.5832 23.5913 88.7009 21.6552 86.9364C19.7184 85.1725 18.75 82.9857 18.75 80.3759V23.0291C18.75 20.7034 19.4913 18.6384 20.974 16.8343C22.4566 15.0294 24.3462 13.8864 26.6427 13.4051L57.0833 6.97907C58.9479 6.5624 60.624 6.95719 62.1115 8.16344C63.599 9.36969 64.3427 10.9301 64.3427 12.8447V62.8124C64.3427 64.2284 63.9049 65.4798 63.0292 66.5666C62.1528 67.6534 61.0257 68.3572 59.6479 68.678L27.6042 75.6968C26.4403 75.953 25.4615 76.5221 24.6677 77.4041C23.8747 78.2853 23.4781 79.2759 23.4781 80.3759C23.4781 81.6954 23.9854 82.7718 25 83.6051C26.0153 84.4384 27.2174 84.8551 28.6062 84.8551H75.2406C75.6142 84.8551 75.9212 84.735 76.1615 84.4947C76.4017 84.2544 76.5219 83.9475 76.5219 83.5739V21.1134C76.5219 20.4419 76.7497 19.8801 77.2052 19.428C77.6608 18.9759 78.2271 18.7499 78.9042 18.7499C79.5812 18.7499 80.1413 18.9759 80.5844 19.428C81.0281 19.8801 81.25 20.4419 81.25 21.1134V83.5739C81.25 85.2121 80.658 86.6232 79.474 87.8072C78.2899 88.9912 76.8788 89.5832 75.2406 89.5832H28.6062ZM32.8125 69.8509C33.35 69.7266 33.7983 69.4614 34.1573 69.0551C34.5163 68.6489 34.6958 68.1572 34.6958 67.5801V19.4228C34.6958 18.6812 34.4073 18.0805 33.8302 17.6207C33.2531 17.161 32.5934 17.0051 31.851 17.153C31.3135 17.2766 30.8653 17.5416 30.5062 17.9478C30.1472 18.3541 29.9677 18.8457 29.9677 19.4228V67.5801C29.9677 68.3218 30.2563 68.9225 30.8333 69.3822C31.4104 69.8419 32.0701 69.9982 32.8125 69.8509Z"
            fill="#3C61CB" />
    </g>
</svg>
    