<svg width="48" height="48" viewBox="0 0 48 48" fill="none" xmlns="http://www.w3.org/2000/svg">
    <mask id="mask0_51_505" style="mask-type:alpha" maskUnits="userSpaceOnUse" x="0" y="0"
        width="48" height="48">
        <rect width="48" height="48" fill="#D9D9D9" />
    </mask>
    <g mask="url(#mask0_51_505)">
        <path
            d="M24.0035 43C21.3755 43 18.9053 42.5013 16.593 41.504C14.2807 40.5067 12.2693 39.1532 10.559 37.4435C8.84867 35.7338 7.4945 33.7233 6.4965 31.412C5.49883 29.1007 5 26.6312 5 24.0035C5 21.3755 5.49883 18.9053 6.4965 16.593C7.49383 14.2807 8.8475 12.2693 10.5575 10.559C12.2675 8.84867 14.2783 7.4945 16.59 6.4965C18.9017 5.49883 21.3717 5 24 5C24.33 5 24.6017 5.10667 24.815 5.32C25.028 5.533 25.1345 5.8045 25.1345 6.1345V21.223C25.7012 21.4717 26.1537 21.8447 26.492 22.342C26.8307 22.839 27 23.3925 27 24.0025C27 24.8188 26.7045 25.5225 26.1135 26.1135C25.5225 26.7045 24.818 27 24 27C23.182 27 22.4775 26.7045 21.8865 26.1135C21.2955 25.5225 21 24.8195 21 24.0045C21 23.3955 21.1693 22.8452 21.508 22.3535C21.8463 21.8615 22.2988 21.4847 22.8655 21.223V15.331C20.6858 15.6077 18.8748 16.5615 17.4325 18.1925C15.9905 19.8232 15.2695 21.759 15.2695 24C15.2695 26.423 16.1188 28.4838 17.8175 30.1825C19.5162 31.8812 21.577 32.7305 24 32.7305C26.423 32.7305 28.4838 31.8812 30.1825 30.1825C31.8812 28.4838 32.7305 26.423 32.7305 24C32.7305 22.9077 32.5428 21.882 32.1675 20.923C31.7918 19.964 31.2783 19.1077 30.627 18.354C30.4117 18.0973 30.3007 17.8102 30.294 17.4925C30.2877 17.1745 30.401 16.899 30.634 16.666C30.873 16.427 31.1495 16.3192 31.4635 16.3425C31.7775 16.3655 32.0422 16.4988 32.2575 16.7425C33.1115 17.7322 33.782 18.8333 34.269 20.046C34.7563 21.259 35 22.577 35 24C35 27.0557 33.931 29.6528 31.793 31.7915C29.655 33.9305 27.0588 35 24.0045 35C20.9502 35 18.3525 33.9305 16.2115 31.7915C14.0705 29.6528 13 27.0557 13 24C13 21.118 13.9455 18.6417 15.8365 16.571C17.7275 14.5007 20.0705 13.3207 22.8655 13.031V7.3C18.4858 7.577 14.7915 9.31617 11.7825 12.5175C8.77383 15.7185 7.2695 19.546 7.2695 24C7.2695 28.6563 8.89383 32.6088 12.1425 35.8575C15.3912 39.1062 19.3437 40.7305 24 40.7305C28.6563 40.7305 32.6088 39.1062 35.8575 35.8575C39.1062 32.6088 40.7305 28.6563 40.7305 24C40.7305 21.8077 40.3512 19.7583 39.5925 17.852C38.8335 15.9457 37.768 14.2488 36.396 12.7615C36.1603 12.4922 36.0245 12.1922 35.9885 11.8615C35.9525 11.5308 36.0525 11.2475 36.2885 11.0115C36.5245 10.7755 36.811 10.6692 37.148 10.6925C37.4853 10.7155 37.7552 10.8552 37.9575 11.1115C39.5318 12.8345 40.7658 14.7827 41.6595 16.956C42.5532 19.129 43 21.477 43 24C43 26.6283 42.5013 29.0983 41.504 31.41C40.5067 33.7217 39.1532 35.7325 37.4435 37.4425C35.7338 39.1525 33.7233 40.5062 31.412 41.5035C29.1007 42.5012 26.6312 43 24.0035 43Z"
            fill="#1C1B1F" />
    </g>
</svg>
    