<svg width="100" height="100" viewBox="0 0 100 100" fill="none" xmlns="http://www.w3.org/2000/svg">
    <mask id="mask0_51_394" style="mask-type:alpha" maskUnits="userSpaceOnUse" x="0" y="0"
        width="100" height="100">
        <rect width="100" height="100" fill="#D9D9D9" />
    </mask>
    <g mask="url(#mask0_51_394)">
        <path
            d="M50 46.2261C55.0264 46.2261 59.2826 44.4619 62.7688 40.9334C66.2542 37.4043 67.9969 33.1296 67.9969 28.1095V15.1449H32.0031V28.1095C32.0031 33.1358 33.7458 37.4119 37.2313 40.9376C40.7174 44.4633 44.9736 46.2261 50 46.2261ZM21.1135 89.5834C20.4441 89.5834 19.883 89.3549 19.4302 88.898C18.9767 88.4411 18.75 87.8747 18.75 87.199C18.75 86.5233 18.9767 85.964 19.4302 85.5209C19.883 85.0772 20.4441 84.8553 21.1135 84.8553H27.276V71.8272C27.276 66.6029 28.8517 61.9567 32.0031 57.8886C35.1552 53.8206 39.2365 51.1911 44.2469 50.0001C39.2365 48.7397 35.1552 46.0688 32.0031 41.9876C28.8517 37.9063 27.276 33.2803 27.276 28.1095V15.1449H21.1135C20.4441 15.1449 19.883 14.9161 19.4302 14.4584C18.9767 14.0015 18.75 13.4355 18.75 12.7605C18.75 12.0848 18.9767 11.5254 19.4302 11.0824C19.883 10.6386 20.4441 10.4167 21.1135 10.4167H78.8865C79.5559 10.4167 80.117 10.6452 80.5698 11.1022C81.0233 11.5591 81.25 12.1254 81.25 12.8011C81.25 13.4768 81.0233 14.0362 80.5698 14.4792C80.117 14.923 79.5559 15.1449 78.8865 15.1449H72.724V28.1095C72.724 33.2803 71.1483 37.9063 67.9969 41.9876C64.8448 46.0688 60.7635 48.7397 55.7531 50.0001C60.7635 51.1911 64.8448 53.8206 67.9969 57.8886C71.1483 61.9567 72.724 66.6029 72.724 71.8272V84.8553H78.8865C79.5559 84.8553 80.117 85.0841 80.5698 85.5417C81.0233 85.9987 81.25 86.5647 81.25 87.2397C81.25 87.9154 81.0233 88.4747 80.5698 88.9178C80.117 89.3615 79.5559 89.5834 78.8865 89.5834H21.1135Z"
            fill="#EFCE42" />
    </g>
</svg>
    