<svg width="60" height="60" viewBox="0 0 60 60" fill="none" xmlns="http://www.w3.org/2000/svg">
    <mask id="mask0_51_460" style="mask-type:alpha" maskUnits="userSpaceOnUse" x="0" y="0"
        width="60" height="60">
        <rect width="60" height="60" fill="#D9D9D9" />
    </mask>
    <g mask="url(#mask0_51_460)">
        <path
            d="M22.005 43.9164H37.995C38.3979 43.9164 38.735 43.7798 39.0063 43.5064C39.2775 43.2327 39.4131 42.8929 39.4131 42.4871C39.4131 42.0812 39.2775 41.7452 39.0063 41.4789C38.735 41.2131 38.3979 41.0802 37.995 41.0802H22.005C21.6021 41.0802 21.265 41.2168 20.9937 41.4902C20.7225 41.7639 20.5869 42.1037 20.5869 42.5096C20.5869 42.9154 20.7225 43.2514 20.9937 43.5177C21.265 43.7835 21.6021 43.9164 22.005 43.9164ZM22.005 33.4596H37.995C38.3979 33.4596 38.735 33.3229 39.0063 33.0495C39.2775 32.7758 39.4131 32.436 39.4131 32.0302C39.4131 31.6243 39.2775 31.2885 39.0063 31.0227C38.735 30.7564 38.3979 30.6233 37.995 30.6233H22.005C21.6021 30.6233 21.265 30.7602 20.9937 31.0339C20.7225 31.3073 20.5869 31.6468 20.5869 32.0527C20.5869 32.4589 20.7225 32.795 20.9937 33.0608C21.265 33.3266 21.6021 33.4596 22.005 33.4596ZM14.8556 53.7483C13.8752 53.7483 13.0292 53.3925 12.3175 52.6808C11.6058 51.9691 11.25 51.1231 11.25 50.1427V9.85392C11.25 8.8735 11.6058 8.02746 12.3175 7.31579C13.0292 6.60413 13.8752 6.24829 14.8556 6.24829H35.0869C35.589 6.24829 36.0631 6.3485 36.5094 6.54892C36.9552 6.74933 37.3448 7.00808 37.6781 7.32517L47.6731 17.3202C47.9902 17.6535 48.249 18.0431 48.4494 18.4889C48.6498 18.9352 48.75 19.4093 48.75 19.9114V50.1427C48.75 51.1231 48.3942 51.9691 47.6825 52.6808C46.9708 53.3925 46.1248 53.7483 45.1444 53.7483H14.8556ZM35.1587 17.897V9.08517H14.8556C14.6635 9.08517 14.4873 9.16517 14.3269 9.32517C14.1669 9.48558 14.0869 9.66183 14.0869 9.85392V50.1427C14.0869 50.3348 14.1669 50.511 14.3269 50.6714C14.4873 50.8314 14.6635 50.9114 14.8556 50.9114H45.1444C45.3365 50.9114 45.5127 50.8314 45.6731 50.6714C45.8331 50.511 45.9131 50.3348 45.9131 50.1427V19.7002H36.9619C36.4623 19.7002 36.0369 19.5245 35.6856 19.1733C35.3344 18.8216 35.1587 18.3962 35.1587 17.897Z"
            fill="white" />
    </g>
</svg>
     