<svg width="185" height="40" viewBox="0 0 185 40" fill="none" xmlns="http://www.w3.org/2000/svg">
    <path d="M8.32183 32.987H20.7813V39H0.737828V1.18835H8.32183V32.987Z" fill="#3C61CB" />
    <path
        d="M53.1749 12.8894C53.1749 14.9118 52.6874 16.8078 51.7123 18.5774C50.7733 20.347 49.2746 21.7735 47.2161 22.8569C45.1937 23.9403 42.6295 24.4821 39.5237 24.4821H33.1857V39H25.6017V1.18835H39.5237C42.449 1.18835 44.9409 1.69395 46.9994 2.70515C49.0579 3.71635 50.5927 5.10675 51.6039 6.87634C52.6513 8.64595 53.1749 10.6503 53.1749 12.8894ZM39.1987 18.3607C41.2933 18.3607 42.8462 17.8912 43.8574 16.9522C44.8686 15.9771 45.3742 14.6229 45.3742 12.8894C45.3742 9.20572 43.3157 7.36389 39.1987 7.36389H33.1857V18.3607H39.1987ZM84.8868 12.5643C84.02 10.9753 82.8283 9.76549 81.3115 8.93486C79.7947 8.10423 78.0251 7.68892 76.0027 7.68892C73.7636 7.68892 71.7773 8.19452 70.0438 9.20572C68.3103 10.2169 66.956 11.6615 65.981 13.5394C65.0059 15.4174 64.5183 17.5842 64.5183 20.04C64.5183 22.568 65.0059 24.771 65.981 26.6489C66.9922 28.5269 68.3826 29.9714 70.1522 30.9826C71.9218 31.9938 73.9803 32.4994 76.3277 32.4994C79.2168 32.4994 81.5823 31.741 83.4242 30.2242C85.266 28.6713 86.4758 26.5225 87.0536 23.7778H74.0525V17.9815H94.5293V24.5904C94.0237 27.2267 92.9403 29.6645 91.279 31.9035C89.6178 34.1426 87.469 35.9483 84.8326 37.3207C82.2324 38.6569 79.3071 39.325 76.0568 39.325C72.4093 39.325 69.1048 38.5125 66.1435 36.8873C63.2182 35.2261 60.9069 32.9328 59.2095 30.0075C57.5483 27.0823 56.7176 23.7598 56.7176 20.04C56.7176 16.3202 57.5483 12.9977 59.2095 10.0725C60.9069 7.11109 63.2182 4.81783 66.1435 3.19269C69.1048 1.53143 72.3912 0.700804 76.0027 0.700804C80.2642 0.700804 83.9659 1.74812 87.1078 3.84275C90.2498 5.90126 92.4166 8.80846 93.6084 12.5643H84.8868Z"
        fill="black" />
    <path
        d="M107.724 7.30972V16.7897H120.455V22.8027H107.724V32.8245H122.08V39H100.14V1.13417H122.08V7.30972H107.724ZM136.556 7.30972V16.7897H149.286V22.8027H136.556V32.8245H150.911V39H128.972V1.13417H150.911V7.30972H136.556ZM170.859 39.3792C168.222 39.3792 165.839 38.9278 163.708 38.0249C161.613 37.1221 159.952 35.8219 158.724 34.1246C157.496 32.4272 156.864 30.4229 156.828 28.1115H164.954C165.062 29.6645 165.604 30.8923 166.579 31.7952C167.59 32.6981 168.963 33.1495 170.696 33.1495C172.466 33.1495 173.856 32.7342 174.867 31.9035C175.878 31.0368 176.384 29.9173 176.384 28.5449C176.384 27.4254 176.041 26.5045 175.355 25.7822C174.669 25.0599 173.802 24.5001 172.755 24.1029C171.743 23.6695 170.335 23.2 168.529 22.6944C166.073 21.9721 164.069 21.2679 162.516 20.5817C160.999 19.8594 159.681 18.7941 158.562 17.3856C157.478 15.941 156.936 14.027 156.936 11.6434C156.936 9.40435 157.496 7.45417 158.616 5.79292C159.735 4.13166 161.306 2.86766 163.329 2.00092C165.351 1.09806 167.662 0.646634 170.263 0.646634C174.163 0.646634 177.323 1.60366 179.743 3.51772C182.198 5.39566 183.553 8.032 183.805 11.4267H175.463C175.391 10.1266 174.831 9.06126 173.784 8.23063C172.773 7.36389 171.418 6.93052 169.721 6.93052C168.24 6.93052 167.048 7.30972 166.146 8.06812C165.279 8.82652 164.845 9.928 164.845 11.3726C164.845 12.3838 165.171 13.2325 165.821 13.9186C166.507 14.5687 167.337 15.1104 168.312 15.5438C169.324 15.941 170.732 16.4105 172.538 16.9522C174.994 17.6745 176.998 18.3968 178.551 19.1191C180.104 19.8414 181.44 20.9248 182.56 22.3694C183.679 23.8139 184.239 25.7099 184.239 28.0574C184.239 30.0798 183.715 31.9577 182.668 33.6912C181.621 35.4247 180.086 36.8151 178.063 37.8624C176.041 38.8736 173.639 39.3792 170.859 39.3792Z"
        fill="#EF832B" />
</svg>
    