<svg width="93" height="21" viewBox="0 0 93 21" fill="none" xmlns="http://www.w3.org/2000/svg">
    <path d="M4.66091 16.9935H10.8906V20H0.868914V1.09417H4.66091V16.9935Z" fill="#3C61CB" />
    <path
        d="M27.0875 6.94469C27.0875 7.95589 26.8437 8.90389 26.3561 9.78869C25.8867 10.6735 25.1373 11.3867 24.108 11.9285C23.0968 12.4702 21.8148 12.741 20.2619 12.741H17.0928V20H13.3008V1.09417H20.2619C21.7245 1.09417 22.9704 1.34697 23.9997 1.85257C25.0289 2.35817 25.7964 3.05337 26.302 3.93817C26.8256 4.82297 27.0875 5.82514 27.0875 6.94469ZM20.0993 9.68034C21.1467 9.68034 21.9231 9.4456 22.4287 8.97611C22.9343 8.48857 23.1871 7.81143 23.1871 6.94469C23.1871 5.10286 22.1579 4.18194 20.0993 4.18194H17.0928V9.68034H20.0993ZM42.9434 6.78217C42.51 5.98766 41.9141 5.38274 41.1557 4.96743C40.3973 4.55212 39.5125 4.34446 38.5013 4.34446C37.3818 4.34446 36.3887 4.59726 35.5219 5.10286C34.6552 5.60846 33.978 6.33074 33.4905 7.26971C33.0029 8.20869 32.7592 9.29211 32.7592 10.52C32.7592 11.784 33.0029 12.8855 33.4905 13.8245C33.9961 14.7634 34.6913 15.4857 35.5761 15.9913C36.4609 16.4969 37.4901 16.7497 38.6639 16.7497C40.1084 16.7497 41.2912 16.3705 42.2121 15.6121C43.133 14.8357 43.7379 13.7613 44.0268 12.3889H37.5263V9.49074H47.7647V12.7952C47.5119 14.1134 46.9701 15.3322 46.1395 16.4518C45.3089 17.5713 44.2345 18.4742 42.9163 19.1603C41.6162 19.8285 40.1536 20.1625 38.5284 20.1625C36.7047 20.1625 35.0524 19.7562 33.5717 18.9437C32.1091 18.113 30.9535 16.9664 30.1048 15.5038C29.2741 14.0411 28.8588 12.3799 28.8588 10.52C28.8588 8.66011 29.2741 6.99886 30.1048 5.53623C30.9535 4.05554 32.1091 2.90891 33.5717 2.09634C35.0524 1.26572 36.6956 0.850401 38.5013 0.850401C40.6321 0.850401 42.4829 1.37406 44.0539 2.42137C45.6249 3.45063 46.7083 4.90423 47.3042 6.78217H42.9434Z"
        fill="black" />
    <path
        d="M54.3621 4.15486V8.89486H60.7273V11.9014H54.3621V16.9122H61.5399V20H50.5701V1.06709H61.5399V4.15486H54.3621ZM68.7779 4.15486V8.89486H75.143V11.9014H68.7779V16.9122H75.9556V20H64.9859V1.06709H75.9556V4.15486H68.7779ZM85.9293 20.1896C84.6111 20.1896 83.4193 19.9639 82.3539 19.5125C81.3066 19.061 80.476 18.411 79.8621 17.5623C79.2481 16.7136 78.9321 15.7114 78.9141 14.5558H82.9769C83.0311 15.3322 83.3019 15.9462 83.7895 16.3976C84.2951 16.849 84.9813 17.0747 85.848 17.0747C86.7328 17.0747 87.428 16.8671 87.9336 16.4518C88.4392 16.0184 88.692 15.4586 88.692 14.7725C88.692 14.2127 88.5205 13.7522 88.1774 13.3911C87.8343 13.0299 87.4009 12.7501 86.8773 12.5514C86.3717 12.3347 85.6674 12.1 84.7646 11.8472C83.5367 11.4861 82.5345 11.1339 81.7581 10.7909C80.9997 10.4297 80.3406 9.89703 79.7808 9.1928C79.2391 8.47051 78.9682 7.51349 78.9682 6.32172C78.9682 5.20217 79.2481 4.22709 79.8079 3.39646C80.3677 2.56583 81.1531 1.93383 82.1643 1.50046C83.1755 1.04903 84.3312 0.823315 85.6313 0.823315C87.5815 0.823315 89.1615 1.30183 90.3713 2.25886C91.5992 3.19783 92.2763 4.516 92.4027 6.21337H88.2315C88.1954 5.56331 87.9155 5.03063 87.3919 4.61531C86.8863 4.18194 86.2091 3.96526 85.3605 3.96526C84.6201 3.96526 84.0242 4.15486 83.5728 4.53406C83.1394 4.91326 82.9227 5.464 82.9227 6.18629C82.9227 6.69189 83.0853 7.11623 83.4103 7.45931C83.7534 7.78434 84.1687 8.0552 84.6562 8.27189C85.1618 8.47051 85.8661 8.70526 86.7689 8.97611C87.9968 9.33726 88.999 9.6984 89.7754 10.0595C90.5519 10.4207 91.22 10.9624 91.7798 11.6847C92.3395 12.407 92.6194 13.355 92.6194 14.5287C92.6194 15.5399 92.3576 16.4789 91.8339 17.3456C91.3103 18.2123 90.5429 18.9075 89.5317 19.4312C88.5205 19.9368 87.3197 20.1896 85.9293 20.1896Z"
        fill="#EF832B" />
</svg>
    